<svg id="Layer_1" data-name="Layer 1" xmlns="http://www.w3.org/2000/svg" viewBox="0 0 1920 280"><title>Homepage</title><path d="M106.05,136.19v50.66q0,12.94,1.4,19.1a21.74,21.74,0,0,0,5.33,10.35,20.65,20.65,0,0,0,8.06,5.39,40.63,40.63,0,0,0,11.87,2.1v2.92H51.59v-2.92a33.85,33.85,0,0,0,11.55-2,21.1,21.1,0,0,0,8.51-5.27,23.36,23.36,0,0,0,5.07-10.79q1.53-6.85,1.53-18.91V93.28a168.15,168.15,0,0,0-.89-16.88A20.8,20.8,0,0,0,66.44,59.77q-5.32-2.93-14.85-3.43V53.42H184.25l3.68,41.26-2.92.63a88.81,88.81,0,0,0-5.84-14.47A42.4,42.4,0,0,0,162.42,63.7a43.54,43.54,0,0,0-14.35-5,139,139,0,0,0-22.34-1.4H106.05v74.91h5.08q22.47,0,32.62-10A28.24,28.24,0,0,0,150.48,112a55.86,55.86,0,0,0,3.05-15.43l2.92.13-.76,76.93h-3.05q-1.39-12.94-4.76-20a26.88,26.88,0,0,0-10.22-11.36,36.94,36.94,0,0,0-12.5-4.64A102.63,102.63,0,0,0,106.05,136.19Z"/><path d="M376.36,226.71H293v-2.92q11.3-1,15.74-3.81,7.88-4.95,7.87-13.71,0-5.21-3.55-14L310.85,187l-12.19-30H242.8l-6.6,17.52L233,182.4q-5.72,14-5.72,22a18.81,18.81,0,0,0,2.1,8.76,18.4,18.4,0,0,0,5.65,6.6,25.63,25.63,0,0,0,12.69,4.06v2.92H190.88v-2.92a26.29,26.29,0,0,0,11.81-3.3,34.08,34.08,0,0,0,9.9-9.4,71.46,71.46,0,0,0,7.93-13.39q3.87-8.19,10.22-24.57L277.21,53.42h7.23l55.23,133.43a210.62,210.62,0,0,0,9.9,21.58,32,32,0,0,0,8,9.77,22.31,22.31,0,0,0,7,3.49,69.17,69.17,0,0,0,11.81,2.1Zm-79.73-74.9L270,86l-25.14,65.77Z"/><path d="M392.63,226.2l.38-52.43,2.92.13q5.34,20,12.7,31.53,13.83,21.28,34.78,21.28,14.61,0,24.13-9.78t9.52-24.75A44.22,44.22,0,0,0,475,179a38.64,38.64,0,0,0-5.65-11.55A43.07,43.07,0,0,0,459,157.9a194.08,194.08,0,0,0-20.38-11.55,199.23,199.23,0,0,1-18.47-10.29,53.2,53.2,0,0,1-10.35-8.5q-10.92-11.94-10.92-29.07a50.36,50.36,0,0,1,4.26-20.32A48.8,48.8,0,0,1,415,61.42,45.34,45.34,0,0,1,446.84,49a48,48,0,0,1,11.05,1.21,94.84,94.84,0,0,1,13.58,4.76c4.23,1.7,7.11,2.77,8.63,3.24a14,14,0,0,0,4.07.7q4.44,0,6-6.48h2.92l.89,50.4H491q-3.42-12.06-5.89-18.47a69.46,69.46,0,0,0-5.89-11.87Q473,62.56,465.55,57.8A31.36,31.36,0,0,0,448.31,53q-14.19,0-22.43,9.66A29.25,29.25,0,0,0,420.5,72a30.75,30.75,0,0,0-2,10.68q0,21.22,27.26,34.18l17.87,8.64q20.65,9.79,29.79,21.61a48.3,48.3,0,0,1,10.39,30.75,54.6,54.6,0,0,1-4.69,22.29A49.7,49.7,0,0,1,479.34,223q-13.2,8-31.1,8.05a79.12,79.12,0,0,1-31.49-6.48c-5.24-2.28-8.37-3.6-9.39-3.93a10.79,10.79,0,0,0-3.43-.51q-6.09,0-8.38,6.09Z"/><path d="M581.82,134H672V93.28Q672,80.2,670.5,74a21.61,21.61,0,0,0-5.4-10.28A21.39,21.39,0,0,0,657,58.37a41.48,41.48,0,0,0-11.87-2V53.42h81.12v2.92a41,41,0,0,0-11.74,2,21.33,21.33,0,0,0-13.46,15.68q-1.46,6.28-1.46,19.23v93.57q0,12.94,1.46,19.17a22.3,22.3,0,0,0,5.4,10.41,22.63,22.63,0,0,0,8.06,5.26,39.12,39.12,0,0,0,11.74,2.1v2.92H645.17v-2.92a39.57,39.57,0,0,0,11.87-2.1,22.72,22.72,0,0,0,8.06-5.26,21.6,21.6,0,0,0,5.4-10.29q1.46-6.21,1.46-19.29V140H581.82v46.85q0,12.94,1.46,19.23a21.19,21.19,0,0,0,13.33,15.61,39.51,39.51,0,0,0,11.87,2.1v2.92H527.36v-2.92a39.63,39.63,0,0,0,11.87-2.1,21.48,21.48,0,0,0,7.93-5.26,20.53,20.53,0,0,0,5.46-10.29q1.39-6.21,1.4-19.29V93.28q0-13.08-1.4-19.3a20.54,20.54,0,0,0-5.46-10.28,20.16,20.16,0,0,0-8-5.33,41.73,41.73,0,0,0-11.8-2V53.42h81.12v2.92a40.94,40.94,0,0,0-11.74,2,21.28,21.28,0,0,0-13.46,15.68q-1.47,6.28-1.46,19.23Z"/><path d="M826.48,53.42v2.92a41,41,0,0,0-11.74,2,21.31,21.31,0,0,0-8.06,5.33q-4.95,5.08-6.1,14.09a141.28,141.28,0,0,0-.76,15.49v93.57a106,106,0,0,0,1,16.63,26.87,26.87,0,0,0,3.3,9.77,20.48,20.48,0,0,0,8.51,7.56c3.46,1.65,8.08,2.64,13.83,3v2.92H745.36v-2.92a39.57,39.57,0,0,0,11.87-2.1,21.48,21.48,0,0,0,7.93-5.26,20.53,20.53,0,0,0,5.46-10.29q1.39-6.21,1.4-19.29V93.28q0-13.08-1.4-19.3a20.54,20.54,0,0,0-5.46-10.28,20.19,20.19,0,0,0-8-5.33,41.87,41.87,0,0,0-11.81-2V53.42Z"/><path d="M851.39,141.21a87.14,87.14,0,0,1,9.14-39.58,92.87,92.87,0,0,1,26.66-31.82,103,103,0,0,1,28.19-15.44A90.15,90.15,0,0,1,945.84,49a88.1,88.1,0,0,1,37.84,8.58,97.12,97.12,0,0,1,32,24.2Q1038,107.16,1038,139.56a86.34,86.34,0,0,1-5.84,31.37,89,89,0,0,1-17,27.57,95.56,95.56,0,0,1-32.44,24,94.26,94.26,0,0,1-77.75.26,92,92,0,0,1-31.74-23.38A84.58,84.58,0,0,1,857,172.52,88.27,88.27,0,0,1,851.39,141.21Zm30.72,1.9q0,36.85,20.06,62.13,9,11.31,19.11,16.45a50.59,50.59,0,0,0,23.29,5.15q13.33,0,23.43-5.09t19.23-16.51q20.06-25.41,20.06-62.64a132.78,132.78,0,0,0-5.52-38.68Q996.25,85.7,986.22,73q-8.13-10.41-18.1-15.18T944.57,53q-13.46,0-23.29,4.7T903.06,73q-10,12.58-15.49,30.88A136.59,136.59,0,0,0,882.11,143.11Z"/><path d="M1094.66,76.4V186.85q0,13.07,1.46,19.29a21.33,21.33,0,0,0,13.46,15.62,40.94,40.94,0,0,0,11.74,2v2.92h-58.53v-2.92a41.08,41.08,0,0,0,11.75-2A21.3,21.3,0,0,0,1088,206.08q1.47-6.29,1.46-19.23V93.15q0-12.81-1.46-19.1a21.52,21.52,0,0,0-5.39-10.35,20.31,20.31,0,0,0-7.94-5.33,41.41,41.41,0,0,0-11.87-2V53.42h48.88l103.09,131.52V93.28q0-13.08-1.46-19.3a21.61,21.61,0,0,0-5.4-10.28,21.39,21.39,0,0,0-8.06-5.33,41.07,41.07,0,0,0-11.74-2V53.42h58.52v2.92q-12.69,0-19.8,7.36a21.45,21.45,0,0,0-5.4,10.35q-1.45,6.28-1.46,19.1V226.71h-5.71Z"/><path d="M1346.81,53.42v2.92a41,41,0,0,0-11.74,2A21.31,21.31,0,0,0,1327,63.7q-5,5.08-6.1,14.09a141.28,141.28,0,0,0-.76,15.49v93.57a106,106,0,0,0,1,16.63,27.06,27.06,0,0,0,3.3,9.77,20.48,20.48,0,0,0,8.51,7.56c3.46,1.65,8.08,2.64,13.83,3v2.92h-81.12v-2.92a39.57,39.57,0,0,0,11.87-2.1,21.48,21.48,0,0,0,7.93-5.26,20.53,20.53,0,0,0,5.46-10.29q1.4-6.21,1.4-19.29V93.28q0-13.08-1.4-19.3a20.54,20.54,0,0,0-5.46-10.28,20.19,20.19,0,0,0-8-5.33,41.87,41.87,0,0,0-11.81-2V53.42Z"/><path d="M1372,226.2l.38-52.43,2.92.13q5.33,20,12.69,31.53,13.83,21.28,34.79,21.28,14.6,0,24.12-9.78t9.52-24.75a44.22,44.22,0,0,0-2.1-13.21,38.64,38.64,0,0,0-5.65-11.55,43.07,43.07,0,0,0-10.34-9.52,194.08,194.08,0,0,0-20.38-11.55,199.23,199.23,0,0,1-18.47-10.29,53.81,53.81,0,0,1-10.35-8.5q-10.92-11.94-10.91-29.07a50.35,50.35,0,0,1,4.25-20.32,48.8,48.8,0,0,1,11.87-16.75A45.34,45.34,0,0,1,1426.18,49a48,48,0,0,1,11,1.21,94.84,94.84,0,0,1,13.58,4.76c4.23,1.7,7.11,2.77,8.64,3.24a13.9,13.9,0,0,0,4.06.7q4.44,0,6-6.48h2.92l.88,50.4h-2.92q-3.42-12.06-5.89-18.47a69.46,69.46,0,0,0-5.89-11.87q-6.21-9.9-13.69-14.66A31.35,31.35,0,0,0,1427.66,53q-14.21,0-22.43,9.66a29.28,29.28,0,0,0-5.39,9.27,30.75,30.75,0,0,0-2,10.68q0,21.22,27.26,34.18l17.87,8.64q20.67,9.79,29.79,21.61a48.31,48.31,0,0,1,10.4,30.75,54.61,54.61,0,0,1-4.7,22.29A49.64,49.64,0,0,1,1458.68,223q-13.2,8-31.1,8.05a79,79,0,0,1-31.48-6.48c-5.25-2.28-8.38-3.6-9.4-3.93a10.75,10.75,0,0,0-3.43-.51q-6.09,0-8.37,6.09Z"/><path d="M1575.25,57.35q-8,0-17.14.51-19.54,1-29.13,5a34.16,34.16,0,0,0-15.81,13.59q-5.72,8.88-8.76,24.12l-2.92-.26,2.29-46.84h171.77l2.28,46.84-2.92.26q-3.42-17.65-10.73-26.73t-21.26-13q-11.81-3.42-40-3.43v129.5q0,12.94,1.46,19.23a21.28,21.28,0,0,0,13.46,15.68,41,41,0,0,0,11.74,2v2.92h-81.12v-2.92a41.54,41.54,0,0,0,11.87-2,21.34,21.34,0,0,0,13.45-15.62q1.47-6.21,1.46-19.29Z"/><path d="M1868.41,226.71H1785v-2.92q11.29-1,15.74-3.81,7.86-4.95,7.87-13.71,0-5.21-3.56-14l-2.15-5.33-12.19-30h-55.86l-6.6,17.52-3.18,7.87q-5.71,14-5.71,22a18.92,18.92,0,0,0,2.09,8.76,18.4,18.4,0,0,0,5.65,6.6,25.7,25.7,0,0,0,12.7,4.06v2.92h-56.87v-2.92a26.25,26.25,0,0,0,11.8-3.3,34,34,0,0,0,9.9-9.4,71.45,71.45,0,0,0,7.94-13.39q3.87-8.19,10.22-24.57l46.46-119.71h7.24l55.22,133.43q6.22,15.1,9.91,21.58a32.07,32.07,0,0,0,8,9.77,22.36,22.36,0,0,0,7,3.49,69,69,0,0,0,11.8,2.1Zm-79.72-74.9L1762,86l-25.14,65.77Z"/></svg>