<?xml version="1.0" standalone="no"?>
<!DOCTYPE svg PUBLIC "-//W3C//DTD SVG 20010904//EN"
 "http://www.w3.org/TR/2001/REC-SVG-20010904/DTD/svg10.dtd">
<svg version="1.0" xmlns="http://www.w3.org/2000/svg"
 width="1080.000000pt" height="1080.000000pt" viewBox="0 0 1080.000000 1080.000000"
 preserveAspectRatio="xMidYMid meet">
<metadata>
Created by potrace 1.11, written by Peter Selinger 2001-2013
</metadata>
<g transform="translate(0.000000,1080.000000) scale(0.100000,-0.100000)"
fill="#000000" stroke="none">
<path d="M1508 10290 c-2 -30 -2 -69 0 -86 3 -30 4 -31 60 -33 59 -1 97 -5
217 -21 132 -18 199 -32 315 -68 47 -14 90 -26 96 -28 33 -6 178 -82 248 -129
219 -148 364 -325 451 -550 33 -87 51 -148 70 -245 11 -58 33 -272 40 -395 2
-38 8 -122 12 -185 10 -150 10 -6159 0 -6310 -15 -212 -26 -320 -42 -410 -2
-14 -7 -45 -11 -70 -3 -24 -7 -47 -9 -50 -2 -3 -6 -23 -9 -45 -4 -22 -18 -78
-32 -125 -123 -416 -321 -636 -711 -791 -76 -30 -274 -85 -343 -95 -19 -3 -42
-7 -50 -9 -18 -5 -116 -14 -219 -20 -41 -2 -77 -9 -80 -14 -3 -5 -5 -42 -3
-82 l3 -74 2312 0 2312 0 0 84 c0 82 -1 84 -25 86 -14 1 -65 6 -113 9 -48 4
-93 9 -100 11 -7 2 -35 6 -64 9 -28 3 -57 8 -65 10 -7 3 -31 8 -53 11 -84 12
-244 61 -340 105 -179 81 -377 250 -486 415 -144 218 -215 457 -245 825 -3 47
-9 110 -12 140 -3 30 -7 821 -9 1758 l-4 1704 223 -6 c123 -4 252 -8 288 -11
105 -6 223 -16 250 -20 14 -2 50 -7 80 -10 30 -3 69 -9 85 -11 17 -3 41 -7 55
-9 55 -7 190 -36 280 -59 530 -136 922 -444 1130 -888 75 -162 155 -424 194
-643 3 -16 8 -41 11 -55 3 -14 10 -54 15 -90 5 -36 12 -74 14 -85 2 -11 7 -47
11 -80 3 -33 9 -85 13 -115 l7 -55 88 -1 87 -2 1 37 c2 114 9 773 14 1341 8
818 20 2071 28 2827 3 209 12 193 -105 193 -64 0 -68 -1 -67 -22 2 -35 -22
-249 -36 -328 -3 -14 -8 -43 -11 -65 -18 -119 -92 -398 -124 -470 -5 -11 -27
-59 -48 -106 -22 -47 -63 -124 -93 -170 -249 -392 -631 -647 -1159 -773 -99
-24 -123 -29 -202 -41 -18 -3 -44 -7 -58 -10 -72 -13 -232 -30 -387 -41 -64
-4 -515 -8 -570 -5 -10 1 -13 435 -13 2135 l0 2134 838 -4 c460 -2 864 -5 897
-8 33 -3 101 -8 150 -11 187 -13 224 -17 360 -35 147 -20 158 -22 270 -45 518
-106 987 -380 1343 -785 112 -127 256 -341 339 -505 81 -159 209 -478 273
-680 30 -93 32 -95 83 -83 23 5 50 11 60 13 60 13 59 12 52 88 -3 40 -8 92
-10 117 -3 25 -7 74 -10 110 -3 36 -8 85 -10 110 -2 25 -7 79 -10 120 -4 41
-8 86 -10 100 -2 14 -6 66 -10 115 -3 50 -8 101 -10 115 -2 14 -6 61 -10 105
-14 171 -15 191 -20 225 -2 19 -7 71 -10 115 -4 44 -8 96 -10 115 -2 19 -7 73
-10 120 -4 47 -9 96 -11 110 -1 14 -6 66 -10 115 -3 50 -8 99 -10 109 -2 10
-6 58 -9 105 -4 47 -8 95 -10 107 -2 11 -6 65 -10 120 -4 54 -9 106 -11 114
-1 8 -3 20 -3 25 -1 7 -1269 10 -3785 10 l-3784 0 -4 -55z"/>
</g>
</svg>
